<svg width="46" height="46" viewBox="0 0 46 46" fill="none" xmlns="http://www.w3.org/2000/svg">
<circle cx="22.6293" cy="22.6293" r="22.1293" fill="#212F40" stroke="#2F435B"/>
<path d="M12.8119 28.1255C12.4803 28.1255 12.2232 28.0316 12.0408 27.844C11.8584 27.6393 11.7672 27.3663 11.7672 27.0251V11.0572C11.7672 10.699 11.8501 10.426 12.0159 10.2384C12.1984 10.0507 12.4554 9.95689 12.787 9.95689C13.1187 9.95689 13.3674 10.0507 13.5333 10.2384C13.7157 10.426 13.8069 10.699 13.8069 11.0572V26.283H21.9655C22.2639 26.283 22.4961 26.3683 22.6619 26.5389C22.8278 26.6924 22.9107 26.9142 22.9107 27.2042C22.9107 27.4942 22.8278 27.7246 22.6619 27.8952C22.4961 28.0487 22.2639 28.1255 21.9655 28.1255H12.8119Z" fill="white"/>
<path d="M21.7261 35.3017C21.3944 35.3017 21.1374 35.2079 20.955 35.0202C20.7891 34.8155 20.7062 34.5426 20.7062 34.2014V18.1567C20.7062 17.7985 20.7974 17.5341 20.9798 17.3635C21.1622 17.1758 21.4193 17.082 21.7509 17.082H27.646C29.5198 17.082 30.9625 17.5596 31.974 18.515C32.9856 19.4533 33.4913 20.7839 33.4913 22.507C33.4913 24.2129 32.9856 25.5436 31.974 26.4989C30.9625 27.4543 29.5198 27.9319 27.646 27.9319H22.7459V34.2014C22.7459 34.5426 22.663 34.8155 22.4971 35.0202C22.3313 35.2079 22.0743 35.3017 21.7261 35.3017ZM22.7459 26.1663H27.3973C28.7405 26.1663 29.752 25.8592 30.4319 25.245C31.1283 24.6138 31.4766 23.7011 31.4766 22.507C31.4766 21.2957 31.1283 20.383 30.4319 19.7689C29.752 19.1377 28.7405 18.8221 27.3973 18.8221H22.7459V26.1663Z" fill="white"/>
</svg>
